<svg preserveAspectRatio="none" overflow="visible" style="display: block;" width="130" height="126.819" viewBox="0 0 130 126.819" fill="none" xmlns="http://www.w3.org/2000/svg">
<path id="Legitimate segment" d="M130 61.8187C130 73.8061 126.685 85.5601 120.422 95.7811C114.158 106.002 105.19 114.292 94.5094 119.734C83.8285 125.176 71.8507 127.559 59.9002 126.618C47.9497 125.678 36.492 121.451 26.794 114.405C17.0959 107.359 9.53526 97.7681 4.94786 86.6931C0.360459 75.6181 -1.07497 63.4903 0.800284 51.6504C2.67553 39.8106 7.78841 28.7199 15.5736 19.6046C23.3589 10.4892 33.5132 3.70433 44.9139 -2.15893e-09L52.5466 23.4911C45.4782 25.7878 39.1825 29.9944 34.3557 35.6459C29.5288 41.2974 26.3588 48.1736 25.1962 55.5144C24.0335 62.8551 24.9235 70.3743 27.7677 77.2408C30.6119 84.1073 35.2995 90.0535 41.3123 94.4221C47.3251 98.7906 54.4288 101.411 61.8381 101.994C69.2474 102.578 76.6737 101.1 83.2958 97.7262C89.918 94.3521 95.4781 89.2124 99.3614 82.8754C103.245 76.5384 105.3 69.2509 105.3 61.8187H130Z" fill="#18B77A"/>
</svg>
