<svg preserveAspectRatio="none" overflow="visible" style="display: block;" width="21" height="21" viewBox="0 0 21 21" fill="none" xmlns="http://www.w3.org/2000/svg">
<g id="users-round">
<path id="Vector" d="M15.7506 18.375C15.7506 16.5185 15.013 14.738 13.7001 13.4253C12.3872 12.1125 10.6066 11.375 8.74993 11.375M8.74993 11.375C6.89325 11.375 5.11261 12.1125 3.79974 13.4253C2.48686 14.738 1.7493 16.5185 1.7493 18.375M8.74993 11.375C11.1664 11.375 13.1253 9.41625 13.1253 7C13.1253 4.58375 11.1664 2.625 8.74993 2.625C6.33347 2.625 4.37454 4.58375 4.37454 7C4.37454 9.41625 6.33347 11.375 8.74993 11.375ZM19.2507 17.5002C19.2507 14.5514 17.5005 11.8127 15.7504 10.5002C16.3257 10.0686 16.7857 9.50187 17.0898 8.85016C17.3938 8.19844 17.5325 7.48183 17.4936 6.76375C17.4546 6.04566 17.2393 5.34825 16.8665 4.73322C16.4938 4.1182 15.9752 3.60453 15.3566 3.23767" stroke="#7B2FF7" stroke-width="2" stroke-linecap="round"/>
</g>
</svg>
